<?xml version="1.0" encoding="UTF-8"?>
<svg width="150px" height="150px" viewBox="0 0 150 150" version="1.1" xmlns="http://www.w3.org/2000/svg" xmlns:xlink="http://www.w3.org/1999/xlink">
    <g stroke="none" stroke-width="1" fill="none" fill-rule="evenodd">
        <path fill="currentColor" d="M146,146 L146,144 L148,144 L148,146 L150,146 L150,148 L148,148 L148,150 L146,150 L146,148 L144,148 L144,146 L146,146 Z M130,146 L130,144 L132,144 L132,146 L134,146 L134,148 L132,148 L132,150 L130,150 L130,148 L128,148 L128,146 L130,146 Z M114,146 L114,144 L116,144 L116,146 L118,146 L118,148 L116,148 L116,150 L114,150 L114,148 L112,148 L112,146 L114,146 Z M98,146 L98,144 L100,144 L100,146 L102,146 L102,148 L100,148 L100,150 L98,150 L98,148 L96,148 L96,146 L98,146 Z M82,146 L82,144 L84,144 L84,146 L86,146 L86,148 L84,148 L84,150 L82,150 L82,148 L80,148 L80,146 L82,146 Z M66,146 L66,144 L68,144 L68,146 L70,146 L70,148 L68,148 L68,150 L66,150 L66,148 L64,148 L64,146 L66,146 Z M50,146 L50,144 L52,144 L52,146 L54,146 L54,148 L52,148 L52,150 L50,150 L50,148 L48,148 L48,146 L50,146 Z M34,146 L34,144 L36,144 L36,146 L38,146 L38,148 L36,148 L36,150 L34,150 L34,148 L32,148 L32,146 L34,146 Z M18,146 L18,144 L20,144 L20,146 L22,146 L22,148 L20,148 L20,150 L18,150 L18,148 L16,148 L16,146 L18,146 Z M2,146 L2,144 L4,144 L4,146 L6,146 L6,148 L4,148 L4,150 L2,150 L2,148 L0,148 L0,146 L2,146 Z M146,130 L146,128 L148,128 L148,130 L150,130 L150,132 L148,132 L148,134 L146,134 L146,132 L144,132 L144,130 L146,130 Z M130,130 L130,128 L132,128 L132,130 L134,130 L134,132 L132,132 L132,134 L130,134 L130,132 L128,132 L128,130 L130,130 Z M114,130 L114,128 L116,128 L116,130 L118,130 L118,132 L116,132 L116,134 L114,134 L114,132 L112,132 L112,130 L114,130 Z M98,130 L98,128 L100,128 L100,130 L102,130 L102,132 L100,132 L100,134 L98,134 L98,132 L96,132 L96,130 L98,130 Z M82,130 L82,128 L84,128 L84,130 L86,130 L86,132 L84,132 L84,134 L82,134 L82,132 L80,132 L80,130 L82,130 Z M66,130 L66,128 L68,128 L68,130 L70,130 L70,132 L68,132 L68,134 L66,134 L66,132 L64,132 L64,130 L66,130 Z M50,130 L50,128 L52,128 L52,130 L54,130 L54,132 L52,132 L52,134 L50,134 L50,132 L48,132 L48,130 L50,130 Z M34,130 L34,128 L36,128 L36,130 L38,130 L38,132 L36,132 L36,134 L34,134 L34,132 L32,132 L32,130 L34,130 Z M18,130 L18,128 L20,128 L20,130 L22,130 L22,132 L20,132 L20,134 L18,134 L18,132 L16,132 L16,130 L18,130 Z M2,130 L2,128 L4,128 L4,130 L6,130 L6,132 L4,132 L4,134 L2,134 L2,132 L0,132 L0,130 L2,130 Z M146,114 L146,112 L148,112 L148,114 L150,114 L150,116 L148,116 L148,118 L146,118 L146,116 L144,116 L144,114 L146,114 Z M130,114 L130,112 L132,112 L132,114 L134,114 L134,116 L132,116 L132,118 L130,118 L130,116 L128,116 L128,114 L130,114 Z M114,114 L114,112 L116,112 L116,114 L118,114 L118,116 L116,116 L116,118 L114,118 L114,116 L112,116 L112,114 L114,114 Z M98,114 L98,112 L100,112 L100,114 L102,114 L102,116 L100,116 L100,118 L98,118 L98,116 L96,116 L96,114 L98,114 Z M82,114 L82,112 L84,112 L84,114 L86,114 L86,116 L84,116 L84,118 L82,118 L82,116 L80,116 L80,114 L82,114 Z M66,114 L66,112 L68,112 L68,114 L70,114 L70,116 L68,116 L68,118 L66,118 L66,116 L64,116 L64,114 L66,114 Z M50,114 L50,112 L52,112 L52,114 L54,114 L54,116 L52,116 L52,118 L50,118 L50,116 L48,116 L48,114 L50,114 Z M34,114 L34,112 L36,112 L36,114 L38,114 L38,116 L36,116 L36,118 L34,118 L34,116 L32,116 L32,114 L34,114 Z M18,114 L18,112 L20,112 L20,114 L22,114 L22,116 L20,116 L20,118 L18,118 L18,116 L16,116 L16,114 L18,114 Z M2,114 L2,112 L4,112 L4,114 L6,114 L6,116 L4,116 L4,118 L2,118 L2,116 L0,116 L0,114 L2,114 Z M146,98 L146,96 L148,96 L148,98 L150,98 L150,100 L148,100 L148,102 L146,102 L146,100 L144,100 L144,98 L146,98 Z M130,98 L130,96 L132,96 L132,98 L134,98 L134,100 L132,100 L132,102 L130,102 L130,100 L128,100 L128,98 L130,98 Z M114,98 L114,96 L116,96 L116,98 L118,98 L118,100 L116,100 L116,102 L114,102 L114,100 L112,100 L112,98 L114,98 Z M98,98 L98,96 L100,96 L100,98 L102,98 L102,100 L100,100 L100,102 L98,102 L98,100 L96,100 L96,98 L98,98 Z M82,98 L82,96 L84,96 L84,98 L86,98 L86,100 L84,100 L84,102 L82,102 L82,100 L80,100 L80,98 L82,98 Z M66,98 L66,96 L68,96 L68,98 L70,98 L70,100 L68,100 L68,102 L66,102 L66,100 L64,100 L64,98 L66,98 Z M50,98 L50,96 L52,96 L52,98 L54,98 L54,100 L52,100 L52,102 L50,102 L50,100 L48,100 L48,98 L50,98 Z M34,98 L34,96 L36,96 L36,98 L38,98 L38,100 L36,100 L36,102 L34,102 L34,100 L32,100 L32,98 L34,98 Z M18,98 L18,96 L20,96 L20,98 L22,98 L22,100 L20,100 L20,102 L18,102 L18,100 L16,100 L16,98 L18,98 Z M2,98 L2,96 L4,96 L4,98 L6,98 L6,100 L4,100 L4,102 L2,102 L2,100 L0,100 L0,98 L2,98 Z M146,82 L146,80 L148,80 L148,82 L150,82 L150,84 L148,84 L148,86 L146,86 L146,84 L144,84 L144,82 L146,82 Z M130,82 L130,80 L132,80 L132,82 L134,82 L134,84 L132,84 L132,86 L130,86 L130,84 L128,84 L128,82 L130,82 Z M114,82 L114,80 L116,80 L116,82 L118,82 L118,84 L116,84 L116,86 L114,86 L114,84 L112,84 L112,82 L114,82 Z M98,82 L98,80 L100,80 L100,82 L102,82 L102,84 L100,84 L100,86 L98,86 L98,84 L96,84 L96,82 L98,82 Z M82,82 L82,80 L84,80 L84,82 L86,82 L86,84 L84,84 L84,86 L82,86 L82,84 L80,84 L80,82 L82,82 Z M66,82 L66,80 L68,80 L68,82 L70,82 L70,84 L68,84 L68,86 L66,86 L66,84 L64,84 L64,82 L66,82 Z M50,82 L50,80 L52,80 L52,82 L54,82 L54,84 L52,84 L52,86 L50,86 L50,84 L48,84 L48,82 L50,82 Z M34,82 L34,80 L36,80 L36,82 L38,82 L38,84 L36,84 L36,86 L34,86 L34,84 L32,84 L32,82 L34,82 Z M18,82 L18,80 L20,80 L20,82 L22,82 L22,84 L20,84 L20,86 L18,86 L18,84 L16,84 L16,82 L18,82 Z M2,82 L2,80 L4,80 L4,82 L6,82 L6,84 L4,84 L4,86 L2,86 L2,84 L0,84 L0,82 L2,82 Z M146,66 L146,64 L148,64 L148,66 L150,66 L150,68 L148,68 L148,70 L146,70 L146,68 L144,68 L144,66 L146,66 Z M130,66 L130,64 L132,64 L132,66 L134,66 L134,68 L132,68 L132,70 L130,70 L130,68 L128,68 L128,66 L130,66 Z M114,66 L114,64 L116,64 L116,66 L118,66 L118,68 L116,68 L116,70 L114,70 L114,68 L112,68 L112,66 L114,66 Z M98,66 L98,64 L100,64 L100,66 L102,66 L102,68 L100,68 L100,70 L98,70 L98,68 L96,68 L96,66 L98,66 Z M82,66 L82,64 L84,64 L84,66 L86,66 L86,68 L84,68 L84,70 L82,70 L82,68 L80,68 L80,66 L82,66 Z M66,66 L66,64 L68,64 L68,66 L70,66 L70,68 L68,68 L68,70 L66,70 L66,68 L64,68 L64,66 L66,66 Z M50,66 L50,64 L52,64 L52,66 L54,66 L54,68 L52,68 L52,70 L50,70 L50,68 L48,68 L48,66 L50,66 Z M34,66 L34,64 L36,64 L36,66 L38,66 L38,68 L36,68 L36,70 L34,70 L34,68 L32,68 L32,66 L34,66 Z M18,66 L18,64 L20,64 L20,66 L22,66 L22,68 L20,68 L20,70 L18,70 L18,68 L16,68 L16,66 L18,66 Z M2,66 L2,64 L4,64 L4,66 L6,66 L6,68 L4,68 L4,70 L2,70 L2,68 L0,68 L0,66 L2,66 Z M146,50 L146,48 L148,48 L148,50 L150,50 L150,52 L148,52 L148,54 L146,54 L146,52 L144,52 L144,50 L146,50 Z M130,50 L130,48 L132,48 L132,50 L134,50 L134,52 L132,52 L132,54 L130,54 L130,52 L128,52 L128,50 L130,50 Z M114,50 L114,48 L116,48 L116,50 L118,50 L118,52 L116,52 L116,54 L114,54 L114,52 L112,52 L112,50 L114,50 Z M98,50 L98,48 L100,48 L100,50 L102,50 L102,52 L100,52 L100,54 L98,54 L98,52 L96,52 L96,50 L98,50 Z M82,50 L82,48 L84,48 L84,50 L86,50 L86,52 L84,52 L84,54 L82,54 L82,52 L80,52 L80,50 L82,50 Z M66,50 L66,48 L68,48 L68,50 L70,50 L70,52 L68,52 L68,54 L66,54 L66,52 L64,52 L64,50 L66,50 Z M50,50 L50,48 L52,48 L52,50 L54,50 L54,52 L52,52 L52,54 L50,54 L50,52 L48,52 L48,50 L50,50 Z M34,50 L34,48 L36,48 L36,50 L38,50 L38,52 L36,52 L36,54 L34,54 L34,52 L32,52 L32,50 L34,50 Z M18,50 L18,48 L20,48 L20,50 L22,50 L22,52 L20,52 L20,54 L18,54 L18,52 L16,52 L16,50 L18,50 Z M2,50 L2,48 L4,48 L4,50 L6,50 L6,52 L4,52 L4,54 L2,54 L2,52 L0,52 L0,50 L2,50 Z M146,34 L146,32 L148,32 L148,34 L150,34 L150,36 L148,36 L148,38 L146,38 L146,36 L144,36 L144,34 L146,34 Z M130,34 L130,32 L132,32 L132,34 L134,34 L134,36 L132,36 L132,38 L130,38 L130,36 L128,36 L128,34 L130,34 Z M114,34 L114,32 L116,32 L116,34 L118,34 L118,36 L116,36 L116,38 L114,38 L114,36 L112,36 L112,34 L114,34 Z M98,34 L98,32 L100,32 L100,34 L102,34 L102,36 L100,36 L100,38 L98,38 L98,36 L96,36 L96,34 L98,34 Z M82,34 L82,32 L84,32 L84,34 L86,34 L86,36 L84,36 L84,38 L82,38 L82,36 L80,36 L80,34 L82,34 Z M66,34 L66,32 L68,32 L68,34 L70,34 L70,36 L68,36 L68,38 L66,38 L66,36 L64,36 L64,34 L66,34 Z M50,34 L50,32 L52,32 L52,34 L54,34 L54,36 L52,36 L52,38 L50,38 L50,36 L48,36 L48,34 L50,34 Z M34,34 L34,32 L36,32 L36,34 L38,34 L38,36 L36,36 L36,38 L34,38 L34,36 L32,36 L32,34 L34,34 Z M18,34 L18,32 L20,32 L20,34 L22,34 L22,36 L20,36 L20,38 L18,38 L18,36 L16,36 L16,34 L18,34 Z M2,34 L2,32 L4,32 L4,34 L6,34 L6,36 L4,36 L4,38 L2,38 L2,36 L0,36 L0,34 L2,34 Z M146,18 L146,16 L148,16 L148,18 L150,18 L150,20 L148,20 L148,22 L146,22 L146,20 L144,20 L144,18 L146,18 Z M130,18 L130,16 L132,16 L132,18 L134,18 L134,20 L132,20 L132,22 L130,22 L130,20 L128,20 L128,18 L130,18 Z M114,18 L114,16 L116,16 L116,18 L118,18 L118,20 L116,20 L116,22 L114,22 L114,20 L112,20 L112,18 L114,18 Z M98,18 L98,16 L100,16 L100,18 L102,18 L102,20 L100,20 L100,22 L98,22 L98,20 L96,20 L96,18 L98,18 Z M82,18 L82,16 L84,16 L84,18 L86,18 L86,20 L84,20 L84,22 L82,22 L82,20 L80,20 L80,18 L82,18 Z M66,18 L66,16 L68,16 L68,18 L70,18 L70,20 L68,20 L68,22 L66,22 L66,20 L64,20 L64,18 L66,18 Z M50,18 L50,16 L52,16 L52,18 L54,18 L54,20 L52,20 L52,22 L50,22 L50,20 L48,20 L48,18 L50,18 Z M34,18 L34,16 L36,16 L36,18 L38,18 L38,20 L36,20 L36,22 L34,22 L34,20 L32,20 L32,18 L34,18 Z M18,18 L18,16 L20,16 L20,18 L22,18 L22,20 L20,20 L20,22 L18,22 L18,20 L16,20 L16,18 L18,18 Z M2,18 L2,16 L4,16 L4,18 L6,18 L6,20 L4,20 L4,22 L2,22 L2,20 L0,20 L0,18 L2,18 Z M146,2 L146,0 L148,0 L148,2 L150,2 L150,4 L148,4 L148,6 L146,6 L146,4 L144,4 L144,2 L146,2 Z M130,2 L130,0 L132,0 L132,2 L134,2 L134,4 L132,4 L132,6 L130,6 L130,4 L128,4 L128,2 L130,2 Z M114,2 L114,0 L116,0 L116,2 L118,2 L118,4 L116,4 L116,6 L114,6 L114,4 L112,4 L112,2 L114,2 Z M98,2 L98,0 L100,0 L100,2 L102,2 L102,4 L100,4 L100,6 L98,6 L98,4 L96,4 L96,2 L98,2 Z M82,2 L82,0 L84,0 L84,2 L86,2 L86,4 L84,4 L84,6 L82,6 L82,4 L80,4 L80,2 L82,2 Z M66,2 L66,0 L68,0 L68,2 L70,2 L70,4 L68,4 L68,6 L66,6 L66,4 L64,4 L64,2 L66,2 Z M50,2 L50,0 L52,0 L52,2 L54,2 L54,4 L52,4 L52,6 L50,6 L50,4 L48,4 L48,2 L50,2 Z M34,2 L34,0 L36,0 L36,2 L38,2 L38,4 L36,4 L36,6 L34,6 L34,4 L32,4 L32,2 L34,2 Z M18,2 L18,0 L20,0 L20,2 L22,2 L22,4 L20,4 L20,6 L18,6 L18,4 L16,4 L16,2 L18,2 Z M2,2 L2,0 L4,0 L4,2 L6,2 L6,4 L4,4 L4,6 L2,6 L2,4 L0,4 L0,2 L2,2 Z"></path>
    </g>
</svg>