<svg xmlns="http://www.w3.org/2000/svg" width="48" height="48" viewBox="0 0 48 48">
  <path fill="currentColor" fill-rule="evenodd" fill-opacity="0.3" d="M38,43H11V5H38V43Z"/>
  <path fill="currentColor" fill-rule="evenodd" d="M15,9H34v7H15V9Zm2.5,11A2.5,2.5,0,1,1,15,22.5,2.5,2.5,0,0,1,17.5,20Zm7,0A2.5,2.5,0,1,1,22,22.5,2.5,2.5,0,0,1,24.5,20Zm7,0A2.5,2.5,0,1,1,29,22.5,2.5,2.5,0,0,1,31.5,20Zm-14,7A2.5,2.5,0,1,1,15,29.5,2.5,2.5,0,0,1,17.5,27Zm7,0A2.5,2.5,0,1,1,22,29.5,2.5,2.5,0,0,1,24.5,27Zm7,0A2.5,2.5,0,1,1,29,29.5,2.5,2.5,0,0,1,31.5,27Zm-14,7A2.5,2.5,0,1,1,15,36.5,2.5,2.5,0,0,1,17.5,34Zm7,0A2.5,2.5,0,1,1,22,36.5,2.5,2.5,0,0,1,24.5,34Zm7,0A2.5,2.5,0,1,1,29,36.5,2.5,2.5,0,0,1,31.5,34Z"/>
</svg>
