<svg xmlns="http://www.w3.org/2000/svg" width="48" height="48" viewBox="0 0 48 48">
  <path fill="currentColor" fill-rule="evenodd" fill-opacity="0.3" d="M24,39.765A18.556,18.556,0,0,1,13.924,37.1L7,44V23.882l0.012,0.006C7.011,23.791,7,23.7,7,23.6,7,14.369,13.247,8,24,8s17,6.652,17,15.882S34.753,39.765,24,39.765Z"/>
  <path fill="currentColor" fill-rule="evenodd" d="M31.994,20.99a3,3,0,1,1-3,3A3,3,0,0,1,31.994,20.99ZM24,21a3,3,0,1,1-3,3A3,3,0,0,1,24,21Zm-8,0a3,3,0,1,1-3,3A3,3,0,0,1,16,21Z"/>
</svg>
